<?xml version="1.0" encoding="UTF-8"?>
<svg id="Layer_2" xmlns="http://www.w3.org/2000/svg" version="1.1" viewBox="0 0 845.2 845.2">
  <!-- Generator: Adobe Illustrator 30.5.1, SVG Export Plug-In . SVG Version: 2.1.4 Build 3)  -->
  <defs>
    <style>
      .st0 {
        fill: #efede4;
      }
    </style>
  </defs>
  <g id="Layer_1-2">
    <circle class="st0" cx="422.6" cy="422.6" r="422.6"/>
    <g>
      <path d="M190,346.9c-7,3.2-12.7,8.3-16.9,15.2-2.5,4-4.6,8.7-6.4,14.1v-34.2h-55.5v161.2h55.5v-59.6c0-10.5,1.6-19.3,4.7-26.5s7.8-12.7,14-16.5c6.2-3.8,13.8-5.6,22.8-5.6h17.6v-53h-10.7c-9.6,0-17.9,1.6-24.9,4.9h0Z"/>
      <path d="M355.9,344.4c-10.6-4.5-23.6-6.7-39.1-6.7s-24.8,1.6-35.6,4.7c-10.8,3.1-19.7,8.3-26.8,15.5-7.1,7.2-11.6,16.8-13.5,28.7h53.7c.8-5,3.2-8.4,7.1-10.2,3.9-1.8,8.5-2.7,14-2.7s6.6.6,9.2,1.7c2.6,1.1,4.6,2.9,6.1,5.2,1.5,2.3,2.2,5.1,2.2,8.5v.3c0,4-1.1,7.2-3.5,9.6-2.3,2.4-5.9,4.1-10.7,5.2l-24.2,4.4c-13.8,2.5-25.1,6.2-34,11-8.9,4.8-15.5,10.7-19.8,17.7-4.3,7-6.4,15.4-6.4,25.2s4.3,24.3,13,32.6c8.7,8.4,20.4,12.5,35.3,12.5s17.1-1.3,24.5-3.9c7.3-2.6,13.9-6.5,19.8-11.8,3.2-2.8,6-6.2,8.5-9.9v21.2h51.8v-102.3c0-14.6-2.6-26.6-7.8-35.9-5.2-9.3-13.1-16.2-23.7-20.7h0ZM333.2,431.1c0,4.2-.6,8.5-1.9,12.9-1.3,4.4-3.1,8.5-5.5,12.2-2.4,3.8-5.5,6.8-9.2,9.1-3.8,2.3-8,3.5-12.9,3.5s-8.3-1.2-11-3.6c-2.7-2.4-4.1-6.2-4.1-11.5s1.5-7.8,4.4-10.8c2.9-3,7.2-5.4,12.9-7.1l15.1-4.4c5.5-1.8,9.6-3.2,12.2-4.3v4h0Z"/>
      <polygon points="514.5 342 482.4 450.5 451.8 342 392.5 342 450.2 503.2 503 503.2 560.7 342 514.5 342"/>
      <path d="M712,360c-7.2-7.6-15.8-13.3-25.7-16.9-9.9-3.7-20.8-5.5-32.5-5.5s-19.1,1.4-27.8,4.1c-8.7,2.7-16.4,6.6-23.2,11.8-6.8,5.1-12.6,11.2-17.4,18.2s-8.5,14.8-11.1,23.4c-2.6,8.6-3.9,17.8-3.9,27.6,0,16.3,3.5,30.9,10.5,43.6,7,12.8,16.8,22.9,29.5,30.3,12.7,7.4,27.2,11.1,43.8,11.1s30.5-2.5,41.9-7.4,20.3-11.2,26.7-19c6.4-7.7,10.2-15.9,11.5-24.5h-54.6c-1.9,4.4-5,7.7-9.2,9.9-4.3,2.2-9.2,3.3-14.9,3.3s-14.1-1.8-19-5.5c-4.9-3.7-8.5-9-10.8-16.2-1.2-3.9-2.1-8.2-2.7-12.9h111.2c.4-17.8-1.4-32.9-5.3-45.3-4-12.4-9.6-22.5-16.8-30.1h0ZM623.5,405.4c.8-4.6,2-8.7,3.6-12.4,1.7-3.9,3.8-7.1,6.3-9.7,2.5-2.6,5.4-4.6,8.8-6s7.1-2,11.3-2,7.3.5,10.5,1.4c3.2.9,6.2,2.6,8.8,4.9,2.6,2.3,4.9,5.4,6.7,9.2,1.9,3.9,3.2,8.7,4.1,14.6h-60.1,0Z"/>
      <polygon points="576.8 342 576 342 571.9 342 571.9 342 569.8 342 512.1 503.2 516.1 503.2 517.2 503.2 521.2 503.2 521.2 503.2 523.4 503.2 580.8 342 576.8 342"/>
    </g>
  </g>
</svg>