<?xml version="1.0" encoding="UTF-8"?>
<svg id="Layer_2" data-name="Layer 2" xmlns="http://www.w3.org/2000/svg" viewBox="0 0 845.25 845.25">
  <defs>
    <style>
      .cls-1 {
        fill: #efede4;
      }
    </style>
  </defs>
  <g id="Layer_1-2" data-name="Layer 1">
    <circle class="cls-1" cx="422.62" cy="422.62" r="422.62"/>
    <g>
      <path d="M189.97,346.86c-7.01,3.25-12.66,8.31-16.94,15.21-2.48,3.99-4.62,8.7-6.43,14.09v-34.17h-55.53v161.25h55.53v-59.61c0-10.46,1.57-19.29,4.71-26.51,3.14-7.22,7.79-12.7,13.96-16.47,6.17-3.76,13.75-5.65,22.75-5.65h17.57v-53.02h-10.67c-9.62,0-17.94,1.62-24.94,4.86Z"/>
      <path d="M355.93,344.35c-10.56-4.5-23.58-6.74-39.06-6.74-12.97,0-24.84,1.57-35.61,4.7-10.77,3.14-19.72,8.31-26.82,15.53-7.11,7.21-11.61,16.78-13.49,28.7h53.65c.83-5.02,3.19-8.42,7.06-10.19,3.87-1.78,8.52-2.67,13.96-2.67,3.55,0,6.64.58,9.25,1.73,2.61,1.15,4.65,2.88,6.12,5.17,1.46,2.3,2.2,5.13,2.2,8.47v.31c0,3.98-1.15,7.17-3.45,9.57-2.3,2.4-5.86,4.13-10.67,5.17l-24.16,4.39c-13.8,2.51-25.15,6.17-34.04,10.98-8.89,4.81-15.48,10.72-19.77,17.73-4.29,7.01-6.43,15.43-6.43,25.25,0,13.39,4.34,24.26,13.02,32.63,8.68,8.36,20.44,12.55,35.29,12.55,8.99,0,17.15-1.31,24.47-3.92,7.32-2.61,13.91-6.53,19.77-11.76,3.17-2.83,5.97-6.16,8.47-9.92v21.21h51.76v-102.27c0-14.64-2.62-26.61-7.84-35.92-5.23-9.3-13.13-16.21-23.69-20.71ZM333.19,431.09c0,4.19-.63,8.47-1.88,12.86-1.26,4.39-3.09,8.47-5.49,12.23-2.41,3.76-5.49,6.8-9.25,9.1-3.77,2.3-8.05,3.45-12.86,3.45s-8.27-1.2-10.98-3.61c-2.72-2.4-4.08-6.22-4.08-11.45,0-4.18,1.46-7.79,4.39-10.82,2.93-3.03,7.22-5.38,12.86-7.06l15.06-4.39c5.52-1.78,9.59-3.22,12.23-4.32v4.01Z"/>
      <polygon points="514.52 342 482.4 450.46 451.77 342 392.48 342 450.2 503.25 503.05 503.25 560.71 342 514.52 342"/>
      <path d="M712,360.04c-7.21-7.63-15.79-13.28-25.72-16.94-9.94-3.66-20.76-5.49-32.47-5.49-9.83,0-19.09,1.36-27.76,4.08-8.68,2.72-16.42,6.64-23.22,11.76-6.8,5.13-12.6,11.19-17.41,18.2-4.81,7.01-8.52,14.8-11.14,23.37-2.62,8.58-3.92,17.78-3.92,27.61,0,16.31,3.5,30.85,10.51,43.61,7,12.76,16.83,22.85,29.49,30.27,12.65,7.42,27.24,11.14,43.76,11.14s30.48-2.46,41.88-7.37c11.4-4.91,20.28-11.24,26.67-18.98,6.38-7.74,10.2-15.89,11.45-24.47h-54.59c-1.88,4.39-4.97,7.69-9.25,9.88-4.29,2.2-9.25,3.29-14.9,3.29-7.74,0-14.07-1.83-18.98-5.49-4.92-3.66-8.52-9.04-10.82-16.16-1.25-3.85-2.12-8.16-2.7-12.86h111.24c.42-17.77-1.36-32.89-5.33-45.33-3.98-12.44-9.57-22.48-16.78-30.12ZM623.53,405.37c.83-4.59,2.03-8.73,3.61-12.39,1.67-3.87,3.76-7.11,6.27-9.73,2.51-2.61,5.44-4.6,8.78-5.96,3.34-1.36,7.11-2.04,11.29-2.04,3.76,0,7.26.47,10.51,1.41,3.24.94,6.17,2.56,8.78,4.86,2.61,2.3,4.86,5.39,6.74,9.25,1.88,3.87,3.24,8.74,4.08,14.59h-60.08Z"/>
      <polygon points="576.8 342 575.95 342 571.94 342 571.94 342 569.77 342 512.1 503.25 516.11 503.25 517.22 503.25 521.23 503.25 521.23 503.25 523.4 503.25 580.81 342 576.8 342"/>
    </g>
  </g>
</svg>